<?xml version="1.0" standalone="no"?>
<!DOCTYPE svg PUBLIC "-//W3C//DTD SVG 20010904//EN"
 "http://www.w3.org/TR/2001/REC-SVG-20010904/DTD/svg10.dtd">
<svg version="1.0" xmlns="http://www.w3.org/2000/svg"
 width="512.000000pt" height="512.000000pt" viewBox="0 0 512.000000 512.000000"
 preserveAspectRatio="xMidYMid meet">
<metadata>
Created by potrace 1.15, written by Peter Selinger 2001-2017
</metadata>
<g transform="translate(0.000000,512.000000) scale(0.100000,-0.100000)"
fill="#000000" stroke="none">
<path d="M2399 5104 c-271 -49 -511 -221 -644 -461 -21 -37 -39 -70 -41 -72
-2 -2 -25 10 -51 27 -530 340 -1220 76 -1395 -534 -30 -105 -33 -353 -6 -452
52 -186 120 -304 255 -439 l101 -101 -38 -76 c-75 -150 -109 -341 -90 -506 33
-276 182 -518 415 -673 83 -55 226 -117 273 -117 91 0 149 89 108 168 -16 30
-34 42 -117 72 -166 60 -308 191 -384 352 -50 105 -66 178 -66 295 -1 159 44
295 139 422 23 30 44 67 47 83 11 46 -22 98 -85 135 -127 76 -218 173 -279
298 -152 311 -52 682 234 874 90 60 162 88 278 109 206 37 424 -33 589 -190
75 -70 88 -78 131 -78 58 0 99 45 121 135 40 162 170 333 316 418 114 66 207
90 345 91 137 1 222 -19 335 -81 166 -90 298 -262 340 -443 17 -73 62 -120
115 -120 47 0 59 7 134 79 188 181 446 243 689 166 286 -91 481 -357 482 -658
0 -235 -122 -457 -323 -584 -47 -30 -72 -79 -63 -124 3 -19 28 -61 55 -94 154
-189 197 -435 117 -667 -36 -102 -82 -173 -167 -258 -84 -85 -189 -146 -299
-176 -84 -23 -117 -46 -131 -94 -16 -52 11 -107 63 -133 34 -17 41 -17 102 -3
151 35 290 112 410 226 95 91 154 171 206 283 60 128 84 237 83 387 0 165 -26
273 -99 417 l-53 106 68 73 c165 176 247 367 258 594 6 135 -6 232 -46 347
-176 512 -760 764 -1248 538 -42 -20 -99 -50 -126 -67 -26 -17 -49 -29 -51
-27 -1 2 -22 38 -45 80 -47 83 -132 188 -198 244 -210 179 -498 258 -764 209z"/>
<path d="M1723 3364 c-41 -21 -67 -74 -58 -122 5 -30 28 -59 123 -153 284
-280 621 -421 1012 -421 223 0 393 39 605 138 42 20 79 34 81 31 2 -2 12 -37
21 -78 25 -108 25 -433 0 -546 -77 -359 -278 -640 -582 -816 -239 -138 -386
-147 -610 -34 -283 141 -492 378 -595 672 -42 120 -59 206 -71 350 -11 130
-20 155 -71 181 -61 32 -135 -2 -158 -72 -22 -65 16 -337 70 -504 35 -106 133
-299 200 -393 76 -106 248 -274 350 -342 170 -113 350 -185 500 -200 86 -9
230 16 329 57 452 187 761 567 868 1068 25 120 25 475 0 605 -20 102 -62 246
-84 288 -17 34 -68 67 -103 67 -14 0 -58 -20 -97 -44 -222 -139 -424 -199
-663 -198 -324 1 -625 132 -866 377 -110 112 -133 122 -201 89z"/>
<path d="M2222 747 c-15 -7 -39 -43 -67 -101 -50 -104 -114 -178 -214 -245
-77 -53 -217 -119 -328 -156 -104 -35 -136 -66 -136 -130 0 -36 5 -51 28 -75
45 -47 79 -48 203 -5 318 110 534 271 637 477 58 117 61 164 11 214 -27 27
-42 34 -72 33 -22 0 -50 -5 -62 -12z"/>
<path d="M2904 741 c-44 -27 -61 -79 -44 -135 18 -62 75 -165 123 -223 116
-142 317 -268 563 -352 103 -35 123 -37 164 -16 42 21 60 53 60 103 0 37 -6
50 -34 78 -19 19 -42 34 -51 34 -24 0 -220 78 -285 113 -166 90 -276 202 -317
322 -29 86 -108 119 -179 76z"/>
</g>
</svg>
